<svg xmlns="http://www.w3.org/2000/svg" xmlns:xlink="http://www.w3.org/1999/xlink" viewBox="0 0 721.35 739.7"><defs><style>.cls-1,.cls-11,.cls-15,.cls-16,.cls-5{fill:none;}.cls-2{fill:#f9d138;}.cls-3,.cls-4{fill:#f6b12f;}.cls-3{opacity:0.76;}.cls-4{opacity:0.26;}.cls-20,.cls-5,.cls-6{stroke:#1c1c1c;}.cls-11,.cls-12,.cls-15,.cls-16,.cls-17,.cls-18,.cls-20,.cls-5,.cls-6{stroke-miterlimit:10;}.cls-17,.cls-5{stroke-width:17px;}.cls-17,.cls-19,.cls-6{fill:#fff;}.cls-11,.cls-6{stroke-width:16px;}.cls-7{fill:#1c1c1c;}.cls-8{fill:#de4a40;}.cls-9{clip-path:url(#clip-path);}.cls-10{fill:#ce433b;}.cls-11{stroke:#030303;}.cls-12,.cls-15{stroke:#000;}.cls-12{stroke-width:6px;}.cls-13{clip-path:url(#clip-path-2);}.cls-14{fill:#d47488;}.cls-15{stroke-width:14px;}.cls-16{stroke:#252525;stroke-linecap:round;stroke-width:30px;}.cls-17,.cls-18{stroke:#232323;}.cls-18{fill:#e1232f;}.cls-18,.cls-20{stroke-width:13px;}.cls-19{opacity:0.97;}.cls-20{fill:#d02531;}.cls-21{fill:#f5f6f6;}.cls-22{fill:#ac3220;}.cls-23{fill:#b9c0c6;}.cls-24{fill:#cecece;}.cls-25{fill:#e9e9e9;}.cls-26{fill:#9ba7af;}.cls-27{fill:#72818b;}.cls-28{fill:#afbabf;}</style><clipPath id="clip-path"><ellipse class="cls-1" cx="282.32" cy="476.7" rx="65.52" ry="76.26" transform="translate(-26.08 16.44) rotate(-3.19)"/></clipPath><clipPath id="clip-path-2"><path class="cls-1" d="M201.41,567a2.58,2.58,0,0,0-2.66,3c1.08,7.09,4.24,24.91,10.4,37.38a93.68,93.68,0,0,0,23.59,31.26c8.17,7,19.55,16.68,37.06,18.45,6.14.62,26.08,1.58,40.67-12.12,9.54-9,12.09-19.77,15.43-34a119.84,119.84,0,0,0,2.91-35.32,3.6,3.6,0,0,0-3.45-3.37l-60.89-2.59Z"/></clipPath></defs><title>Asset 10</title><g id="Layer_2" data-name="Layer 2"><g id="Layer_1-2" data-name="Layer 1"><ellipse class="cls-2" cx="271.54" cy="416.98" rx="263.04" ry="269.98"/><ellipse class="cls-3" cx="103.9" cy="495.5" rx="14.05" ry="19.96" transform="translate(-345.03 261.47) rotate(-50.62)"/><ellipse class="cls-3" cx="92.84" cy="552.93" rx="10.05" ry="14.28" transform="translate(-242.18 103.36) rotate(-27.16)"/><ellipse class="cls-3" cx="151.64" cy="531.62" rx="21.56" ry="13.17" transform="translate(-142.74 63.69) rotate(-16.25)"/><ellipse class="cls-3" cx="69.83" cy="360.08" rx="11.58" ry="16.74" transform="translate(-285.01 267.24) rotate(-64.36)"/><ellipse class="cls-3" cx="69.83" cy="299.06" rx="13.23" ry="7.66" transform="translate(-140.17 74.98) rotate(-30)"/><ellipse class="cls-3" cx="457.23" cy="504.84" rx="19.96" ry="14.05" transform="translate(-180.04 264.4) rotate(-27.16)"/><ellipse class="cls-3" cx="449.67" cy="562.56" rx="14.28" ry="10.05" transform="translate(-261.94 451.75) rotate(-42.51)"/><ellipse class="cls-3" cx="403.39" cy="529.08" rx="13.17" ry="21.56" transform="translate(-248.14 663.84) rotate(-64.36)"/><path id="shadow_1" class="cls-4" d="M97.46,610c224.75,19.8,311.82-25,344.19-79.61,69.46-117.28-81.9-332.65-46.83-352.39,18.52-10.42,68.45,45.26,89.56,73.76,58.62,79.11,55,164.56,53.86,183.22-1.77,27.6-10.68,102.2-70.25,168C449.6,623.29,397.74,674.41,314,688.44c0,0-94.14,15.78-201.37-49.17-7.27-4.41-27.41-16.61-25.17-24C88.49,612,93.54,610.65,97.46,610Z"/><ellipse class="cls-5" cx="271.54" cy="416.98" rx="263.04" ry="269.98"/><circle class="cls-6" cx="368.87" cy="367.02" r="104.97"/><circle class="cls-6" cx="174.22" cy="376.3" r="104.97"/><circle class="cls-7" cx="206.91" cy="382.27" r="26.42"/><circle class="cls-7" cx="385.57" cy="376.3" r="26.42"/><ellipse class="cls-8" cx="282.31" cy="476.7" rx="65.52" ry="76.26" transform="translate(-26.08 16.44) rotate(-3.19)"/><g class="cls-9"><path id="shadow_nose" data-name="shadow nose" class="cls-10" d="M258.83,544.24c26.06-18.54,52.14-44.77,56.52-79.68,4.47-35.57-16.36-58-6.51-69.09,15.59-17.54,95,7.89,106.35,54.24,13,52.77-66.56,114.87-118.3,118.49-8.3.58-35.14,2.46-40.13-9.66C254.84,553.88,256.69,548.42,258.83,544.24Z"/></g><ellipse class="cls-11" cx="282.32" cy="476.7" rx="65.52" ry="76.26" transform="translate(-26.08 16.44) rotate(-3.19)"/><path class="cls-12" d="M201.41,567a2.58,2.58,0,0,0-2.66,3c1.08,7.09,4.24,24.91,10.4,37.38a93.68,93.68,0,0,0,23.59,31.26c8.17,7,19.55,16.68,37.06,18.45,6.14.62,26.08,1.58,40.67-12.12,9.54-9,12.09-19.77,15.43-34a119.84,119.84,0,0,0,2.91-35.32,3.6,3.6,0,0,0-3.45-3.37l-60.89-2.59Z"/><g class="cls-13"><ellipse class="cls-14" cx="274.66" cy="643.02" rx="28.24" ry="47.78" transform="translate(-396.18 840.21) rotate(-83.25)"/><ellipse class="cls-14" cx="231.91" cy="631.27" rx="28.24" ry="40.61" transform="translate(-422.23 787.39) rotate(-83.25)"/></g><path class="cls-15" d="M201.41,567a2.58,2.58,0,0,0-2.66,3c1.08,7.09,4.24,24.91,10.4,37.38a93.68,93.68,0,0,0,23.59,31.26c8.17,7,19.55,16.68,37.06,18.45,6.14.62,26.08,1.58,40.67-12.12,9.54-9,12.09-19.77,15.43-34a119.84,119.84,0,0,0,2.91-35.32,3.6,3.6,0,0,0-3.45-3.37l-60.89-2.59Z"/><line class="cls-16" x1="119.48" y1="258.33" x2="404.81" y2="250.23"/><path class="cls-17" d="M475.18,71.47c2.11-4.35.36-9.37-4.15-11.94C439,41.28,351.55-1.55,234.84,10.65,133.77,21.22,66.07,67.27,38,89.47c-4.05,3.19-4.9,8.43-2,12.44l81.68,113.66a11.73,11.73,0,0,0,11.23,4.34l.08,0c82.39-12.42,172.54-16.92,270.45-9.5,4.86.37,9.45-2,11.35-5.95Z"/><path class="cls-18" d="M205.66,96.25,236.36,95a5.48,5.48,0,0,0,5.19-5.73L240.36,58a5.47,5.47,0,0,1,5.19-5.73L276.24,51a5.45,5.45,0,0,1,5.61,5.3L283,87.67A5.45,5.45,0,0,0,288.65,93l30.69-1.21a5.45,5.45,0,0,1,5.61,5.3l1.19,31.33A5.46,5.46,0,0,1,321,134.1l-30.69,1.22a5.47,5.47,0,0,0-5.19,5.72l1.19,31.34a5.47,5.47,0,0,1-5.19,5.72l-30.69,1.22a5.45,5.45,0,0,1-5.61-5.3l-1.33-34.89a5.45,5.45,0,0,0-5.61-5.3l-30.69,1.22a5.45,5.45,0,0,1-5.61-5.3L200.47,102A5.48,5.48,0,0,1,205.66,96.25Z"/><circle class="cls-19" cx="400.09" cy="368.75" r="4.4"/><circle class="cls-19" cx="306.94" cy="358.86" r="3.44"/><circle class="cls-19" cx="220.02" cy="373.15" r="4.4"/><path class="cls-20" d="M544.67,382.16,704.9,480.84a20.91,20.91,0,0,1,6.84,28.77L580.16,723.25a20.92,20.92,0,0,1-28.77,6.84L391.16,631.4a20.91,20.91,0,0,1-6.84-28.76L515.9,389a20.91,20.91,0,0,1,28.77-6.83Z"/><path class="cls-21" d="M406.58,616.34a5.22,5.22,0,0,1-1.71-7.19L531,404.41a5.24,5.24,0,0,1,7.2-1.71l151.33,93.2a5.24,5.24,0,0,1,1.71,7.19L592.51,663.33l-79.11,18.8Z"/><path class="cls-22" d="M569.31,421.89l-8.9-5.48,5.48-8.91a10.46,10.46,0,0,1,14.39-3.41Z"/><path class="cls-23" d="M518.78,489l102.37,63a7.84,7.84,0,0,1-8.23,13.35L510.55,502.34A7.84,7.84,0,0,1,518.78,489ZM502.33,515.7l102.37,63a7.84,7.84,0,0,1-8.23,13.35L494.1,529.05a7.84,7.84,0,0,1,8.23-13.35Zm-16.45,26.7,102.37,63.05A7.84,7.84,0,1,1,580,618.8l-102.37-63a7.84,7.84,0,1,1,8.22-13.35Zm-16.45,26.71,57.87,35.63a7.85,7.85,0,0,1-8.23,13.36l-57.86-35.64a7.84,7.84,0,0,1,8.22-13.35Zm93.53-102,57.86,35.64a7.84,7.84,0,1,1-8.22,13.35l-57.86-35.64A7.84,7.84,0,1,1,563,467.09Z"/><path class="cls-24" d="M592.51,663.33,548,635.91a5.24,5.24,0,0,0-7.19,1.71L513.4,682.13Z"/><path class="cls-25" d="M533.62,639.33l-5.48,8.9a5.23,5.23,0,0,1-7.2,1.71,5.24,5.24,0,0,0-7.19,1.71,5.22,5.22,0,0,1-7.19,1.71l-4.45-2.74a5.23,5.23,0,0,0-7.19,1.71,5.24,5.24,0,0,1-7.2,1.71L407.61,604.7l-2.74,4.45a5.22,5.22,0,0,0,1.71,7.19L513.4,682.13l27.41-44.51A5.23,5.23,0,0,0,533.62,639.33ZM689.49,495.9,560.41,416.41a42.15,42.15,0,0,1-2.47,4,10.47,10.47,0,0,0,2.7,14.54l.45.29L667.91,501a10.46,10.46,0,0,1,3.42,14.39l-8.23,13.35a10.46,10.46,0,0,0,3.42,14.38l24.68-40.06A5.24,5.24,0,0,0,689.49,495.9Z"/><path class="cls-26" d="M660.59,439.06a16.15,16.15,0,0,1-2.49-13.81,26.14,26.14,0,0,0-42.73-26.32,16.11,16.11,0,0,1-13.45,4L590,400.86a10.47,10.47,0,0,0-10.68,4.78l-10,16.25a10.44,10.44,0,0,0,3.42,14.38L644,480.13a10.45,10.45,0,0,0,14.38-3.42l10-16.24a10.46,10.46,0,0,0-.54-11.69l-7.21-9.72Zm-33.06-12a10.46,10.46,0,1,1,14.38-3.42A10.46,10.46,0,0,1,627.53,427.05Z"/><path class="cls-27" d="M655.94,450.69a5.22,5.22,0,0,0-7.19,1.71,5.24,5.24,0,0,1-7.19,1.71l-8.9-5.49a5.25,5.25,0,0,0-7.2,1.71,5.22,5.22,0,0,1-7.19,1.71l-49-30.15a10.44,10.44,0,0,0,3.42,14.38L644,480.13a10.45,10.45,0,0,0,14.38-3.42l11-17.8Z"/><path class="cls-28" d="M615.78,407.54a5.23,5.23,0,0,1-1.93-7.14,5.41,5.41,0,0,1,.91-1.17,26.14,26.14,0,0,1,32-3.34,5.23,5.23,0,1,1-5.49,8.9,15.7,15.7,0,0,0-19.12,2,5.24,5.24,0,0,1-6.33.71Z"/><path class="cls-22" d="M699.42,489.74l-17.8-11a10.46,10.46,0,0,1-3.42-14.39l-8.91-5.48-11,17.8,31.16,19.19a5.24,5.24,0,0,1,1.71,7.19L592.51,663.33l-79.11,18.8L406.58,616.34A10.46,10.46,0,0,0,410,630.73l108.33,66.72a20.92,20.92,0,0,0,15.8,2.55L582,688.61a20.88,20.88,0,0,0,13-9.39L702.84,504.13a10.46,10.46,0,0,0-3.42-14.39Z"/></g></g></svg>